# This file uses centimeters as units for non-parametric coordinates.

mtllib Negative_platform.mtl
g default
v 0.263822 3.290970 -0.282042
v 7.700363 3.290970 -0.282042
v 0.010006 4.340158 -0.059352
v 7.954178 4.340158 -0.059352
v 0.010006 4.340158 -7.029326
v 7.954178 4.340158 -7.029326
v 0.263822 3.290970 -6.806636
v 7.700363 3.290970 -6.806636
v 0.263822 3.713844 -0.282042
v 7.700363 3.713844 -0.282042
v 0.263822 3.713844 -6.806636
v 7.700363 3.713844 -6.806636
v 0.010006 3.713850 -7.029326
v 7.954178 3.713850 -7.029326
v 0.010006 3.713850 -0.059352
v 7.954178 3.713850 -0.059352
v 1.063174 3.290970 -0.282042
v 1.063174 3.290970 -6.806636
v 0.953108 3.290970 -0.282042
v 0.953108 3.290970 -6.806636
v 1.013953 3.403935 -0.282042
v 1.013953 3.403935 -6.806636
v 2.016006 3.403935 -0.282042
v 2.016006 3.403935 -6.806636
v 3.001579 3.403935 -0.282042
v 3.001579 3.403935 -6.806636
v 4.005534 3.403935 -0.282042
v 4.005534 3.403935 -6.806636
v 5.019628 3.403935 -0.282042
v 5.019628 3.403935 -6.806636
v 6.003301 3.403935 -0.282042
v 6.003301 3.403935 -6.806636
v 6.997114 3.403935 -0.282042
v 6.997114 3.403935 -6.806636
v 2.078753 3.290970 -0.282042
v 2.078753 3.290970 -6.806636
v 1.967203 3.290970 -0.282042
v 1.967203 3.290970 -6.806636
v 2.971157 3.290970 -0.282042
v 2.971157 3.290970 -6.806636
v 3.042143 3.290970 -0.282042
v 3.042143 3.290970 -6.806636
v 3.964970 3.290970 -0.282042
v 3.964970 3.290970 -6.806636
v 4.066379 3.290970 -0.282042
v 4.066379 3.290970 -6.806636
v 4.968924 3.290970 -0.282042
v 4.968924 3.290970 -6.806636
v 5.060193 3.290970 -0.282042
v 5.060193 3.290970 -6.806636
v 5.962737 3.290970 -0.282042
v 5.962737 3.290970 -6.806636
v 6.074287 3.290970 -0.282042
v 6.074287 3.290970 -6.806636
v 6.956550 3.290970 -0.282042
v 6.956550 3.290970 -6.806636
v 7.027536 3.290970 -0.282042
v 7.027536 3.290970 -6.806636
vt 0.375000 0.000000
vt 0.625000 0.000000
vt 0.375000 0.250000
vt 0.625000 0.250000
vt 0.375000 0.500000
vt 0.625000 0.500000
vt 0.375000 0.750000
vt 0.625000 0.750000
vt 0.375000 1.000000
vt 0.625000 1.000000
vt 0.875000 0.000000
vt 0.875000 0.250000
vt 0.125000 0.000000
vt 0.125000 0.250000
vt 0.375000 0.094369
vt 0.625000 0.094369
vt 0.125000 0.094369
vt 0.375000 0.655631
vt 0.625000 0.655631
vt 0.875000 0.094369
vt 0.125000 0.120704
vt 0.375000 0.629296
vt 0.625000 0.629296
vt 0.875000 0.120704
vt 0.375000 0.120704
vt 0.625000 0.120704
vt 0.401872 0.000000
vt 0.401872 1.000000
vt 0.401872 0.750000
vt 0.398172 0.000000
vt 0.398172 1.000000
vt 0.398172 0.750000
vt 0.400218 0.000000
vt 0.400218 1.000000
vt 0.400218 0.750000
vt 0.433628 0.000000
vt 0.433628 1.000000
vt 0.433628 0.750000
vt 0.467037 0.000000
vt 0.467037 1.000000
vt 0.467037 0.750000
vt 0.500788 0.000000
vt 0.500788 1.000000
vt 0.500788 0.750000
vt 0.534880 0.000000
vt 0.534880 1.000000
vt 0.534880 0.750000
vt 0.567949 0.000000
vt 0.567949 1.000000
vt 0.567949 0.750000
vt 0.601358 0.000000
vt 0.601358 1.000000
vt 0.601358 0.750000
vt 0.436014 0.000000
vt 0.436014 1.000000
vt 0.436014 0.750000
vt 0.432264 0.000000
vt 0.432264 1.000000
vt 0.432264 0.750000
vt 0.466015 0.000000
vt 0.466015 1.000000
vt 0.466015 0.750000
vt 0.468401 0.000000
vt 0.468401 1.000000
vt 0.468401 0.750000
vt 0.499424 0.000000
vt 0.499424 1.000000
vt 0.499424 0.750000
vt 0.502834 0.000000
vt 0.502834 1.000000
vt 0.502834 0.750000
vt 0.533175 0.000000
vt 0.533175 1.000000
vt 0.533175 0.750000
vt 0.536243 0.000000
vt 0.536243 1.000000
vt 0.536243 0.750000
vt 0.566585 0.000000
vt 0.566585 1.000000
vt 0.566585 0.750000
vt 0.570335 0.000000
vt 0.570335 1.000000
vt 0.570335 0.750000
vt 0.599995 0.000000
vt 0.599995 1.000000
vt 0.599995 0.750000
vt 0.602381 0.000000
vt 0.602381 1.000000
vt 0.602381 0.750000
vn 0.000000 0.000000 1.000000
vn 0.000000 0.000000 1.000000
vn 0.000000 0.000000 1.000000
vn 0.000000 0.000000 1.000000
vn 0.000000 0.000000 1.000000
vn 0.000000 0.000000 1.000000
vn 0.000000 0.000000 1.000000
vn 0.000000 0.000000 1.000000
vn 0.000000 0.000000 1.000000
vn 0.000000 0.000000 1.000000
vn 0.000000 0.000000 1.000000
vn 0.000000 0.000000 1.000000
vn 0.000000 0.000000 1.000000
vn 0.000000 0.000000 1.000000
vn 0.000000 0.000000 1.000000
vn 0.000000 0.000000 1.000000
vn 0.000000 0.000000 1.000000
vn 0.000000 0.000000 1.000000
vn 0.000000 0.000000 1.000000
vn 0.000000 0.000000 1.000000
vn 0.000000 0.000000 1.000000
vn 0.000000 0.000000 1.000000
vn 0.000000 0.000000 1.000000
vn 0.000000 -0.707098 0.707116
vn 0.000000 -0.707098 0.707116
vn 0.000000 1.000000 0.000000
vn 0.000000 1.000000 0.000000
vn 0.000000 1.000000 0.000000
vn 0.000000 1.000000 0.000000
vn 0.000000 0.000000 -1.000000
vn 0.000000 0.000000 -1.000000
vn 0.000000 -0.707098 -0.707116
vn 0.000000 -0.707098 -0.707116
vn 0.000000 -1.000000 0.000000
vn 0.512732 -0.858549 0.000000
vn 0.512732 -0.858549 0.000000
vn 0.000000 -1.000000 0.000000
vn 1.000000 0.000000 0.000000
vn 1.000000 0.000000 0.000000
vn 0.707115 -0.707099 0.000000
vn 0.707115 -0.707099 0.000000
vn -1.000000 0.000000 0.000000
vn -1.000000 0.000000 0.000000
vn -0.707115 -0.707099 0.000000
vn -0.707115 -0.707099 0.000000
vn 0.000000 -0.707098 0.707116
vn 0.000000 -0.707098 0.707116
vn 0.000000 -0.707098 -0.707116
vn 0.000000 -0.707098 -0.707116
vn 0.000000 0.000000 -1.000000
vn 0.000000 0.000000 -1.000000
vn 0.000000 0.000000 -1.000000
vn 0.000000 0.000000 -1.000000
vn 0.000000 0.000000 -1.000000
vn 0.000000 0.000000 -1.000000
vn 0.000000 0.000000 -1.000000
vn 0.000000 0.000000 -1.000000
vn 0.000000 0.000000 -1.000000
vn 0.000000 0.000000 -1.000000
vn 0.000000 0.000000 -1.000000
vn 0.000000 0.000000 -1.000000
vn 0.000000 0.000000 -1.000000
vn 0.000000 0.000000 -1.000000
vn 0.000000 0.000000 -1.000000
vn 0.000000 0.000000 -1.000000
vn 0.000000 0.000000 -1.000000
vn 0.000000 0.000000 -1.000000
vn 0.000000 0.000000 -1.000000
vn 0.000000 0.000000 -1.000000
vn 0.000000 0.000000 -1.000000
vn 0.000000 0.000000 -1.000000
vn 0.000000 0.000000 -1.000000
vn 0.707115 -0.707099 0.000000
vn 0.707115 -0.707099 0.000000
vn -0.707115 -0.707099 0.000000
vn -0.707115 -0.707099 0.000000
vn 0.000000 0.000000 1.000000
vn 0.000000 0.000000 1.000000
vn 1.000000 0.000000 0.000000
vn 1.000000 0.000000 0.000000
vn -1.000000 0.000000 0.000000
vn -1.000000 0.000000 0.000000
vn -0.547976 -0.836494 0.000000
vn -0.547976 -0.836494 0.000000
vn 0.549274 -0.835642 0.000000
vn 0.549274 -0.835642 0.000000
vn -0.041566 -0.999136 0.000000
vn -0.041566 -0.999136 0.000000
vn 0.049588 -0.998770 0.000000
vn 0.049588 -0.998770 0.000000
vn -0.507161 -0.861851 0.000000
vn -0.507161 -0.861851 0.000000
vn 0.040827 -0.999166 0.000000
vn 0.040827 -0.999166 0.000000
vn -0.575344 -0.817911 0.000000
vn -0.575344 -0.817911 0.000000
vn 0.074591 -0.997214 0.000000
vn 0.074591 -0.997214 0.000000
vn -0.512733 -0.858548 0.000000
vn -0.512733 -0.858548 0.000000
vn -0.038569 -0.999256 0.000000
vn -0.038569 -0.999256 0.000000
vn -0.575345 -0.817911 0.000000
vn -0.575345 -0.817911 0.000000
vn 0.107937 -0.994158 0.000000
vn 0.107937 -0.994158 0.000000
vn -0.483702 -0.875233 0.000000
vn -0.483702 -0.875233 0.000000
vn -0.040825 -0.999166 0.000000
vn -0.040825 -0.999166 0.000000
vn -0.608257 -0.793740 0.000000
vn -0.608257 -0.793740 0.000000
vn 0.608257 -0.793740 0.000000
vn 0.608257 -0.793740 0.000000
vn 0.575345 -0.817911 0.000000
vn 0.575345 -0.817911 0.000000
vn 0.543371 -0.839493 0.000000
vn 0.543371 -0.839493 0.000000
vn 0.575346 -0.817910 0.000000
vn 0.575346 -0.817910 0.000000
vn 0.575346 -0.817910 0.000000
vn 0.575346 -0.817910 0.000000
vn 0.000000 -1.000000 0.000000
vn 0.000000 -1.000000 0.000000
s 1
g pCube1
usemtl initialShadingGroup
f 1/1/1 19/30/2 21/33/3 17/27/4 37/57/5 23/36/6 35/54/7 39/60/8 25/39/9 41/63/10 43/66/11 27/42/12 45/69/13 47/72/14 29/45/15 49/75/16 51/78/17 31/48/18 53/81/19 55/84/20 33/51/21 57/87/22 2/2/23 10/16/24 9/15/25
s off
f 3/3/26 4/4/27 6/6/28 5/5/29
s 2
f 5/5/30 6/6/31 14/23/32 13/22/33
s 3
f 7/7/34 20/32/35 19/31/36 1/9/37
s 4
f 2/2/38 8/11/39 12/20/40 10/16/41
s 5
f 7/13/42 1/1/43 9/15/44 11/17/45
s 1
f 9/15/25 10/16/24 16/26/46 15/25/47
s 2
f 11/18/48 12/19/49 8/8/50 58/89/51 34/53/52 56/86/53 54/83/54 32/50/55 52/80/56 50/77/57 30/47/58 48/74/59 46/71/60 28/44/61 44/68/62 42/65/63 26/41/64 40/62/65 36/56/66 24/38/67 38/59/68 18/29/69 22/35/70 20/32/71 7/7/72
s 4
f 10/16/41 12/20/40 14/24/73 16/26/74
s 5
f 11/17/45 9/15/44 15/25/75 13/21/76
s 2
f 13/22/33 14/23/32 12/19/49 11/18/48
s 1
f 15/25/47 16/26/46 4/4/77 3/3/78
s 4
f 16/26/74 14/24/73 6/12/79 4/4/80
s 5
f 13/21/76 15/25/75 3/3/81 5/14/82
s 3
f 17/28/83 18/29/84 38/59/85 37/58/86
f 19/31/36 20/32/35 22/35/87 21/34/88
f 21/34/88 22/35/87 18/29/84 17/28/83
f 23/37/89 24/38/90 36/56/91 35/55/92
f 25/40/93 26/41/94 42/65/95 41/64/96
f 27/43/97 28/44/98 46/71/99 45/70/100
f 29/46/101 30/47/102 50/77/103 49/76/104
f 31/49/105 32/50/106 54/83/107 53/82/108
f 33/52/109 34/53/110 58/89/111 57/88/112
f 35/55/92 36/56/91 40/62/113 39/61/114
f 37/58/86 38/59/85 24/38/90 23/37/89
f 39/61/114 40/62/113 26/41/94 25/40/93
f 41/64/96 42/65/95 44/68/115 43/67/116
f 43/67/116 44/68/115 28/44/98 27/43/97
f 45/70/100 46/71/99 48/74/117 47/73/118
f 47/73/118 48/74/117 30/47/102 29/46/101
f 49/76/104 50/77/103 52/80/119 51/79/120
f 51/79/120 52/80/119 32/50/106 31/49/105
f 53/82/108 54/83/107 56/86/121 55/85/122
f 55/85/122 56/86/121 34/53/110 33/52/109
f 57/88/112 58/89/111 8/8/123 2/10/124
