# This file uses centimeters as units for non-parametric coordinates.

mtllib Stone_ramp_high.mtl
g default
v 0.057692 0.115988 -0.041536
v 6.004675 0.115988 -0.041536
v 0.057692 0.918961 -0.041536
v 6.004675 5.835980 -0.041536
v 0.057692 0.918961 -2.379887
v 6.004675 5.835980 -2.379887
v 0.057692 0.115988 -2.379886
v 6.004675 0.115988 -2.379886
v 0.006927 0.882353 0.000722
v 6.055440 5.799372 0.000722
v 0.006927 0.882353 -2.422144
v 6.055439 5.799372 -2.422144
v 0.006927 0.138200 0.000722
v 6.055440 0.138200 0.000722
v 0.006927 0.138200 -2.422144
v 6.055440 0.138200 -2.422144
v 0.991463 1.343802 0.000722
v 0.991463 0.138200 0.000722
v 0.942415 1.479726 0.000722
v 0.942415 0.138200 0.000722
v 2.000443 1.810097 0.000722
v 2.000443 0.138200 0.000722
v 2.042484 2.294045 0.000722
v 2.042484 0.138200 0.000722
v 3.969356 3.852905 0.000722
v 3.969356 0.138200 0.000722
v 4.018404 3.852905 0.000722
v 4.018404 0.138200 0.000722
v 4.985344 4.610284 0.000722
v 4.985344 0.138200 0.000722
v 5.013370 4.610284 0.000722
v 5.013370 0.138200 0.000722
v 5.994324 4.640890 0.000722
v 5.994324 0.138200 0.000722
v 0.006927 0.788266 0.000722
v 6.055440 2.505379 0.000722
v 0.784455 1.092987 0.149350
v 0.254325 0.846978 0.063933
v 2.168337 1.366740 0.149350
v 2.788359 1.972943 0.047719
v 3.317135 2.447795 0.000722
v 3.784416 2.701771 0.330975
v 4.797717 3.468282 0.330975
v 5.013370 3.527956 0.219501
v 5.952425 3.963287 0.219501
v 0.006927 0.154773 0.000722
v 6.055440 0.154773 0.000722
v 0.784454 0.154773 0.149349
v 0.362921 0.261475 0.044833
v 2.168338 0.154773 0.149349
v 2.645411 0.273087 0.107352
v 3.317135 0.154773 0.000722
v 3.784416 0.238286 0.330975
v 4.797716 0.241692 0.330975
v 5.013370 0.154773 0.219501
v 5.952425 0.154773 0.219501
v 1.082970 1.247119 0.000722
v 1.182191 0.138200 0.000722
v 1.095515 0.742536 0.149350
v 1.179981 0.289483 0.149349
v 1.870762 2.176465 0.000722
v 1.788078 0.138200 0.000722
v 1.860307 1.552767 0.149350
v 1.789919 0.186617 0.149349
v 1.492074 1.020023 0.149350
v 1.492074 0.154773 0.149349
v 1.492074 1.613486 0.000722
v 1.492074 0.138200 0.000722
v 4.206965 3.927758 0.000722
v 4.150590 0.138200 0.000722
v 4.199838 2.836298 0.330975
v 4.151845 0.154773 0.330975
v 4.683494 4.610284 0.000722
v 4.748771 0.138200 0.000722
v 4.691748 3.527956 0.330975
v 4.747318 0.154773 0.330975
v 4.450783 3.044610 0.330975
v 4.450783 0.193954 0.330975
v 4.450783 4.195745 0.000722
v 4.450783 0.138200 0.000722
v 5.473543 4.610284 0.000722
v 5.225492 0.138200 0.000722
v 5.442181 3.601518 0.219501
v 5.231017 0.277476 0.219501
v 5.810398 5.045613 0.000722
v 5.810398 0.138200 0.000722
v 5.810398 3.963287 0.219501
v 5.692744 0.197812 0.219501
v 0.057692 0.115988 -4.802753
v 6.004675 0.115988 -4.802753
v 6.055440 0.138200 -4.845010
v 5.994324 0.138200 -4.845010
v 5.810398 0.138200 -4.845010
v 5.225492 0.138200 -4.845010
v 5.013370 0.138200 -4.845010
v 4.985344 0.138200 -4.845010
v 4.748771 0.138200 -4.845010
v 4.450783 0.138200 -4.845010
v 4.150590 0.138200 -4.845010
v 4.018404 0.138200 -4.845010
v 3.969356 0.138200 -4.845010
v 2.042484 0.138200 -4.845010
v 2.000443 0.138200 -4.845010
v 1.788078 0.138200 -4.845010
v 1.492074 0.138200 -4.845010
v 1.182191 0.138200 -4.845010
v 0.991463 0.138200 -4.845010
v 0.942415 0.138200 -4.845010
v 0.006927 0.138200 -4.845010
v 0.057692 0.918961 -4.802753
v 6.004675 5.835980 -4.802753
v 6.004675 5.835980 -2.464401
v 0.057692 0.918961 -2.464401
v 6.055439 5.799372 -2.422144
v 0.006927 0.882353 -2.422144
v 0.057692 0.115988 -2.464402
v 6.004675 0.115988 -2.464402
v 6.055440 0.138200 -2.422144
v 0.006927 0.138200 -2.422144
v 0.006927 0.882353 -4.845010
v 0.942415 1.479726 -4.845010
v 0.991463 1.343802 -4.845010
v 1.082970 1.247119 -4.845010
v 1.492074 1.613486 -4.845010
v 1.870762 2.176465 -4.845010
v 2.000443 1.810097 -4.845010
v 2.042484 2.294045 -4.845010
v 3.969356 3.852905 -4.845010
v 4.018404 3.852905 -4.845010
v 4.206965 3.927758 -4.845010
v 4.450783 4.195745 -4.845010
v 4.683494 4.610284 -4.845010
v 4.985344 4.610284 -4.845010
v 5.013370 4.610284 -4.845010
v 5.473543 4.610284 -4.845010
v 5.810398 5.045613 -4.845010
v 5.994324 4.640890 -4.845010
v 6.055440 5.799372 -4.845010
v 0.362921 0.261475 -4.889121
v 0.006927 0.154773 -4.845010
v 6.055440 2.505379 -4.845010
v 6.055440 0.154773 -4.845010
v 0.006927 0.788266 -4.845010
v 0.784455 1.092987 -4.993638
v 1.095515 0.742536 -4.993638
v 0.254325 0.846978 -4.908220
v 2.168337 1.366740 -4.993638
v 2.788359 1.972943 -4.892007
v 3.317135 2.447795 -4.845010
v 3.784416 2.701771 -5.175263
v 4.199838 2.836298 -5.175263
v 4.797717 3.468282 -5.175263
v 5.013370 3.527956 -5.063789
v 5.442181 3.601518 -5.063789
v 5.952425 3.963287 -5.063789
v 1.860307 1.552767 -4.993638
v 1.789919 0.186617 -4.993637
v 2.168338 0.154773 -4.993637
v 0.784454 0.154773 -4.993637
v 2.645411 0.273087 -4.951640
v 3.317135 0.154773 -4.845010
v 3.784416 0.238286 -5.175263
v 4.691748 3.527956 -5.175263
v 4.747318 0.154773 -5.175263
v 4.797716 0.241692 -5.175263
v 5.013370 0.154773 -5.063789
v 5.810398 3.963287 -5.063789
v 5.692744 0.197812 -5.063789
v 5.952425 0.154773 -5.063789
v 1.492074 1.020023 -4.993638
v 1.179981 0.289483 -4.993637
v 1.492074 0.154773 -4.993637
v 4.450783 3.044610 -5.175263
v 4.151845 0.154773 -5.175263
v 4.450783 0.193954 -5.175263
v 5.231017 0.277476 -5.063789
vt 0.375000 0.000000
vt 0.625000 0.000000
vt 0.375000 0.250000
vt 0.625000 0.250000
vt 0.375000 0.500000
vt 0.625000 0.500000
vt 0.375000 0.750000
vt 0.625000 0.750000
vt 0.375000 1.000000
vt 0.625000 1.000000
vt 0.875000 0.000000
vt 0.875000 0.250000
vt 0.125000 0.000000
vt 0.125000 0.250000
vt 0.375000 0.213139
vt 0.625000 0.213139
vt 0.125000 0.213139
vt 0.375000 0.536861
vt 0.625000 0.536861
vt 0.875000 0.213139
vt 0.375000 0.033383
vt 0.625000 0.033383
vt 0.125000 0.033383
vt 0.375000 0.716617
vt 0.625000 0.716617
vt 0.875000 0.033383
vt 0.415693 0.213139
vt 0.415693 0.033383
vt 0.413666 0.213139
vt 0.413666 0.033383
vt 0.457397 0.213139
vt 0.457397 0.033383
vt 0.459135 0.213139
vt 0.459135 0.033383
vt 0.538777 0.213139
vt 0.538777 0.033383
vt 0.540804 0.213139
vt 0.540804 0.033383
vt 0.580770 0.213139
vt 0.580770 0.033383
vt 0.581929 0.213139
vt 0.581929 0.033383
vt 0.622474 0.213139
vt 0.622474 0.033383
vt 0.375000 0.190412
vt 0.625000 0.190412
vt 0.415693 0.190412
vt 0.413666 0.190412
vt 0.457397 0.190412
vt 0.459135 0.190412
vt 0.538777 0.190412
vt 0.540804 0.190412
vt 0.580770 0.190412
vt 0.581929 0.190412
vt 0.622474 0.190412
vt 0.375000 0.037387
vt 0.625000 0.037387
vt 0.415693 0.037387
vt 0.413666 0.037387
vt 0.457397 0.037387
vt 0.459135 0.037387
vt 0.538777 0.037387
vt 0.540804 0.037387
vt 0.580770 0.037387
vt 0.581929 0.037387
vt 0.622474 0.037387
vt 0.419476 0.213139
vt 0.423577 0.033383
vt 0.418568 0.190412
vt 0.422221 0.037387
vt 0.452037 0.213139
vt 0.448619 0.033383
vt 0.451642 0.190412
vt 0.448598 0.037387
vt 0.435718 0.190412
vt 0.435718 0.037387
vt 0.436385 0.213139
vt 0.436385 0.033383
vt 0.548598 0.213139
vt 0.546268 0.033383
vt 0.548564 0.190412
vt 0.545979 0.037387
vt 0.568294 0.213139
vt 0.570992 0.033383
vt 0.575062 0.190412
vt 0.578055 0.037387
vt 0.562082 0.190412
vt 0.562082 0.037387
vt 0.558676 0.213139
vt 0.558676 0.033383
vt 0.600949 0.213139
vt 0.590696 0.033383
vt 0.600443 0.190412
vt 0.591326 0.037387
vt 0.614872 0.213139
vt 0.614872 0.033383
vt 0.616342 0.190412
vt 0.616342 0.037387
vt 0.375000 0.000000
vt 0.625000 0.000000
vt 0.625000 0.033383
vt 0.622474 0.033383
vt 0.614872 0.033383
vt 0.590696 0.033383
vt 0.581929 0.033383
vt 0.580770 0.033383
vt 0.570992 0.033383
vt 0.558676 0.033383
vt 0.546268 0.033383
vt 0.540804 0.033383
vt 0.538777 0.033383
vt 0.459135 0.033383
vt 0.457397 0.033383
vt 0.448619 0.033383
vt 0.436385 0.033383
vt 0.423577 0.033383
vt 0.415693 0.033383
vt 0.413666 0.033383
vt 0.375000 0.033383
vt 0.375000 0.250000
vt 0.625000 0.250000
vt 0.625000 0.500000
vt 0.375000 0.500000
vt 0.625000 0.536861
vt 0.375000 0.536861
vt 0.375000 0.750000
vt 0.625000 0.750000
vt 0.625000 1.000000
vt 0.375000 1.000000
vt 0.875000 0.000000
vt 0.875000 0.033383
vt 0.125000 0.000000
vt 0.125000 0.033383
vt 0.375000 0.213139
vt 0.413666 0.213139
vt 0.415693 0.213139
vt 0.419476 0.213139
vt 0.436385 0.213139
vt 0.452037 0.213139
vt 0.457397 0.213139
vt 0.459135 0.213139
vt 0.538777 0.213139
vt 0.540804 0.213139
vt 0.548598 0.213139
vt 0.558676 0.213139
vt 0.568294 0.213139
vt 0.580770 0.213139
vt 0.581929 0.213139
vt 0.600949 0.213139
vt 0.614872 0.213139
vt 0.622474 0.213139
vt 0.625000 0.213139
vt 0.625000 0.716617
vt 0.375000 0.716617
vt 0.875000 0.213139
vt 0.875000 0.250000
vt 0.125000 0.213139
vt 0.125000 0.250000
vt 0.413666 0.037387
vt 0.375000 0.037387
vt 0.625000 0.190412
vt 0.625000 0.037387
vt 0.375000 0.190412
vt 0.415693 0.190412
vt 0.418568 0.190412
vt 0.413666 0.190412
vt 0.457397 0.190412
vt 0.459135 0.190412
vt 0.538777 0.190412
vt 0.540804 0.190412
vt 0.548564 0.190412
vt 0.580770 0.190412
vt 0.581929 0.190412
vt 0.600443 0.190412
vt 0.622474 0.190412
vt 0.451642 0.190412
vt 0.448598 0.037387
vt 0.457397 0.037387
vt 0.415693 0.037387
vt 0.459135 0.037387
vt 0.538777 0.037387
vt 0.540804 0.037387
vt 0.575062 0.190412
vt 0.578055 0.037387
vt 0.580770 0.037387
vt 0.581929 0.037387
vt 0.616342 0.190412
vt 0.616342 0.037387
vt 0.622474 0.037387
vt 0.435718 0.190412
vt 0.422221 0.037387
vt 0.435718 0.037387
vt 0.562082 0.190412
vt 0.545979 0.037387
vt 0.562082 0.037387
vt 0.591326 0.037387
vn 0.000000 -0.885171 0.465267
vn 0.000000 -0.885171 0.465267
vn 0.130784 -0.933077 0.335057
vn 0.054954 -0.961009 0.271001
vn -0.055754 -0.939737 0.337322
vn 0.064227 -0.914463 0.399541
vn -0.010141 -0.950708 0.309923
vn -0.002964 -0.958364 0.285533
vn 0.073506 -0.956965 0.280739
vn -0.000170 -0.972873 0.231340
vn -0.033632 -0.971570 0.234351
vn -0.063021 -0.954859 0.290297
vn -0.005288 -0.840055 0.542475
vn 0.081929 -0.892382 0.443782
vn 0.056391 -0.974319 0.217999
vn 0.000030 -0.951010 0.309160
vn -0.045015 -0.918711 0.392356
vn -0.000903 -0.857030 0.515266
vn -0.005529 -0.942555 0.334005
vn -0.079921 -0.854670 0.512984
vn -0.003073 -0.649924 0.759993
vn -0.637212 0.770688 0.000000
vn -0.637212 0.770688 0.000000
vn -0.637212 0.770688 0.000000
vn -0.637212 0.770688 0.000000
vn -0.526712 0.642479 -0.556592
vn -0.526712 0.642479 -0.556592
vn -0.298518 0.364130 -0.882211
vn -0.298518 0.364130 -0.882211
vn 0.000000 -1.000000 0.000000
vn 0.000000 -1.000000 0.000000
vn 0.000000 -1.000000 0.000000
vn 0.000000 -1.000000 0.000000
vn 0.400843 -0.916147 -0.000000
vn 0.400843 -0.916147 -0.000000
vn 0.836912 -0.547337 -0.000000
vn 0.836912 -0.547337 -0.000000
vn -0.400845 -0.916146 0.000000
vn -0.400845 -0.916146 0.000000
vn -0.836913 -0.547337 0.000000
vn -0.836913 -0.547337 0.000000
vn -0.149219 0.195487 0.969288
vn -0.170950 0.274005 0.946413
vn 0.001016 0.282834 0.959168
vn 0.003678 0.222375 0.974954
vn -0.211658 0.200318 0.956595
vn -0.017340 0.225274 0.974141
vn 0.066580 0.193150 0.978908
vn -0.062731 0.096715 0.993333
vn -0.251277 0.158589 0.954835
vn -0.282205 0.248457 0.926623
vn -0.154210 0.228479 0.961258
vn -0.281119 0.216291 0.934982
vn -0.180284 0.221778 0.958286
vn 0.107081 0.201544 0.973608
vn 0.087284 0.175561 0.980592
vn -0.114443 0.175612 0.977785
vn -0.015345 0.186177 0.982397
vn 0.367554 0.134403 0.920239
vn 0.415547 0.080858 0.905971
vn -0.095605 0.116618 0.988565
vn -0.095605 0.116618 0.988565
vn -0.000000 -0.517077 -0.855939
vn -0.000000 -0.517077 -0.855939
vn 0.890200 0.455571 -0.000000
vn 0.890200 0.455571 -0.000000
vn 0.584911 0.811098 0.000000
vn 0.584911 0.811098 0.000000
vn -0.890199 0.455572 0.000000
vn -0.890199 0.455572 0.000000
vn -0.584908 0.811100 0.000000
vn -0.584908 0.811100 0.000000
vn -0.177596 -0.426884 0.886696
vn -0.087585 -0.178820 0.979976
vn 1.000000 0.000000 -0.000000
vn 1.000000 0.000000 -0.000000
vn -1.000000 0.000000 0.000000
vn -1.000000 0.000000 0.000000
vn 0.000000 -0.885172 -0.465263
vn 0.000000 -0.885172 -0.465263
vn -0.024383 0.176581 0.983984
vn 0.027312 0.136651 0.990243
vn -0.196749 0.163496 0.966726
vn 0.105019 0.117886 0.987458
vn 0.038250 0.049702 0.998031
vn -0.288971 0.092886 0.952821
vn -0.342783 0.158528 0.925942
vn -0.092529 0.143453 0.985322
vn 0.223694 0.122202 0.966968
vn 0.208829 0.102599 0.972555
vn -0.062148 0.102965 0.992742
vn 0.561147 0.069797 0.824768
vn 0.863217 0.011706 0.504697
vn -0.186422 0.122557 0.974796
vn 0.012048 0.137475 0.990432
vn 0.000029 -0.620966 0.783838
vn 0.097648 -0.662741 0.742454
vn -0.068046 -0.588840 0.805380
vn 0.147985 -0.481860 0.863662
vn -0.141344 -0.459749 0.876729
vn -0.251323 -0.638483 0.727445
vn -0.111224 0.137079 0.984296
vn 0.070682 -0.629718 0.773602
vn 0.152123 -0.633934 0.758279
vn 0.143091 -0.619656 0.771720
vn 0.012973 0.109491 0.993903
vn -0.052099 -0.599119 0.798963
vn 0.377924 -0.685389 0.622427
vn 0.716392 -0.584112 0.381570
vn -0.136207 0.122255 0.983108
vn -0.000768 -0.474996 0.879988
vn -0.040819 -0.561678 0.826349
vn -0.189360 0.134588 0.972640
vn -0.033257 -0.663050 0.747836
vn -0.000168 -0.666853 0.745189
vn 0.058033 -0.556451 0.828852
vn 0.000000 -0.885170 -0.465267
vn -0.003073 -0.649923 -0.759993
vn -0.079921 -0.854670 -0.512984
vn -0.005528 -0.942555 -0.334005
vn -0.000903 -0.857029 -0.515267
vn -0.045015 -0.918711 -0.392357
vn 0.000030 -0.951010 -0.309161
vn 0.056391 -0.974318 -0.217999
vn 0.081929 -0.892382 -0.443782
vn -0.005288 -0.840055 -0.542475
vn -0.063021 -0.954859 -0.290297
vn -0.033632 -0.971570 -0.234351
vn -0.000170 -0.972873 -0.231340
vn 0.073507 -0.956965 -0.280740
vn -0.002964 -0.958364 -0.285533
vn -0.010141 -0.950708 -0.309923
vn 0.064227 -0.914462 -0.399542
vn -0.055754 -0.939737 -0.337322
vn 0.054954 -0.961009 -0.271001
vn 0.130784 -0.933077 -0.335057
vn 0.000000 -0.885170 -0.465267
vn -0.637212 0.770688 0.000000
vn -0.637212 0.770688 0.000000
vn -0.637212 0.770688 0.000000
vn -0.637212 0.770688 0.000000
vn -0.526711 0.642479 0.556594
vn -0.298517 0.364130 0.882211
vn -0.298517 0.364130 0.882211
vn -0.526711 0.642479 0.556594
vn 0.000000 -1.000000 0.000000
vn 0.000000 -1.000000 0.000000
vn 0.000000 -1.000000 0.000000
vn 0.000000 -1.000000 0.000000
vn 0.400843 -0.916147 0.000000
vn 0.836912 -0.547338 0.000000
vn 0.836912 -0.547338 0.000000
vn 0.400843 -0.916147 0.000000
vn -0.400845 -0.916146 0.000000
vn -0.836912 -0.547337 0.000000
vn -0.836912 -0.547337 0.000000
vn -0.400845 -0.916146 0.000000
vn -0.149218 0.195486 -0.969288
vn -0.095604 0.116618 -0.988565
vn -0.095604 0.116618 -0.988565
vn 0.415547 0.080858 -0.905971
vn 0.367554 0.134403 -0.920239
vn -0.015345 0.186176 -0.982397
vn -0.114442 0.175611 -0.977785
vn 0.087284 0.175561 -0.980592
vn 0.107081 0.201544 -0.973609
vn -0.180283 0.221778 -0.958286
vn -0.281118 0.216291 -0.934982
vn -0.154209 0.228479 -0.961258
vn -0.282204 0.248457 -0.926623
vn -0.251277 0.158588 -0.954835
vn -0.062731 0.096715 -0.993333
vn 0.066581 0.193149 -0.978908
vn -0.017340 0.225274 -0.974141
vn -0.211658 0.200318 -0.956595
vn 0.003678 0.222375 -0.974954
vn 0.001016 0.282834 -0.959168
vn -0.170949 0.274004 -0.946413
vn 0.000000 -0.517077 0.855939
vn 0.000000 -0.517077 0.855939
vn 0.890199 0.455572 0.000000
vn 0.584909 0.811099 0.000000
vn 0.584909 0.811099 0.000000
vn 0.890199 0.455572 0.000000
vn -0.890199 0.455572 0.000000
vn -0.584908 0.811100 0.000000
vn -0.584908 0.811100 0.000000
vn -0.890199 0.455572 0.000000
vn -0.087584 -0.178820 -0.979976
vn -0.177596 -0.426884 -0.886696
vn 1.000000 0.000000 0.000000
vn 1.000000 0.000000 0.000000
vn -1.000000 0.000000 0.000000
vn -1.000000 0.000000 0.000000
vn 0.000000 -0.885173 0.465263
vn 0.000000 -0.885173 0.465263
vn 0.027312 0.136651 -0.990243
vn -0.024384 0.176581 -0.983984
vn -0.196748 0.163496 -0.966726
vn 0.038250 0.049702 -0.998031
vn 0.105020 0.117885 -0.987458
vn -0.288971 0.092886 -0.952821
vn -0.342782 0.158528 -0.925942
vn -0.092528 0.143453 -0.985322
vn 0.208828 0.102599 -0.972556
vn 0.223694 0.122202 -0.966968
vn -0.062148 0.102965 -0.992742
vn 0.863217 0.011706 -0.504698
vn 0.561146 0.069797 -0.824769
vn -0.186421 0.122556 -0.974796
vn 0.097648 -0.662741 -0.742455
vn 0.000029 -0.620965 -0.783838
vn 0.012048 0.137475 -0.990432
vn -0.068047 -0.588840 -0.805380
vn 0.147985 -0.481860 -0.863662
vn -0.141344 -0.459748 -0.876729
vn -0.251323 -0.638483 -0.727445
vn 0.152124 -0.633933 -0.758279
vn 0.070683 -0.629718 -0.773602
vn -0.111223 0.137079 -0.984296
vn 0.143090 -0.619656 -0.771720
vn 0.377924 -0.685389 -0.622427
vn -0.052099 -0.599119 -0.798963
vn 0.012974 0.109491 -0.993903
vn 0.716392 -0.584112 -0.381571
vn -0.136206 0.122254 -0.983108
vn -0.000769 -0.474995 -0.879988
vn -0.040819 -0.561677 -0.826349
vn -0.189360 0.134588 -0.972640
vn -0.033256 -0.663050 -0.747836
vn -0.000168 -0.666853 -0.745189
vn 0.058034 -0.556450 -0.828852
s 1
g pCube1
usemtl initialShadingGroup
f 1/1/1 2/2/2 14/22/3 34/44/4 86/96/5 82/92/6 32/42/7 30/40/8 74/84/9 80/90/10 70/80/11 28/38/12 26/36/13 24/34/14 22/32/15 62/72/16 68/78/17 58/68/18 18/28/19 20/30/20 13/21/21
s off
f 3/3/22 4/4/23 6/6/24 5/5/25
s 2
f 5/5/26 6/6/27 12/19/28 11/18/29
s off
f 7/7/30 8/8/31 2/10/32 1/9/33
s 3
f 2/2/34 8/11/35 16/26/36 14/22/37
s 4
f 7/13/38 1/1/39 13/21/40 15/23/41
s 1
f 9/15/42 19/29/43 17/27/44 57/67/45 67/77/46 61/71/47 21/31/48 23/33/49 25/35/50 27/37/51 69/79/52 79/89/53 73/83/54 29/39/55 31/41/56 81/91/57 85/95/58 33/43/59 10/16/60 4/4/61 3/3/62
s 2
f 11/18/29 12/19/28 16/25/63 15/24/64
s 3
f 10/16/65 12/20/66 6/12/67 4/4/68
s 4
f 11/17/69 9/15/70 3/3/71 5/14/72
s 1
f 13/21/21 20/30/20 49/59/73 46/56/74
s 3
f 14/22/37 16/26/36 12/20/66 10/16/65 36/46/75 47/57/76
s 4
f 15/23/41 13/21/40 46/56/77 35/45/78 9/15/70 11/17/69
s 2
f 15/24/64 16/25/63 8/8/79 7/7/80
s 1
f 17/27/44 37/47/81 59/69/82 57/67/45
f 19/29/43 38/48/83 37/47/81 17/27/44
f 21/31/48 39/49/84 40/50/85 23/33/49
f 23/33/49 40/50/85 41/51/86 25/35/50
f 25/35/50 41/51/86 42/52/87 27/37/51
f 27/37/51 42/52/87 71/81/88 69/79/52
f 29/39/55 43/53/89 44/54/90 31/41/56
f 31/41/56 44/54/90 83/93/91 81/91/57
f 33/43/59 45/55/92 36/46/93 10/16/60
f 35/45/94 38/48/83 19/29/43 9/15/42
f 39/49/84 63/73/95 64/74/96 50/60/97
f 37/47/81 38/48/83 49/59/73 48/58/98
f 40/50/85 39/49/84 50/60/97 51/61/99
f 41/51/86 40/50/85 51/61/99 52/62/100
f 42/52/87 41/51/86 52/62/100 53/63/101
f 43/53/89 75/85/102 76/86/103 54/64/104
f 44/54/90 43/53/89 54/64/104 55/65/105
f 45/55/92 87/97/106 88/98/107 56/66/108
f 36/46/93 45/55/92 56/66/108 47/57/109
f 46/56/74 49/59/73 38/48/83 35/45/94
f 50/60/97 64/74/96 62/72/16 22/32/15
f 48/58/98 49/59/73 20/30/20 18/28/19
f 51/61/99 50/60/97 22/32/15 24/34/14
f 52/62/100 51/61/99 24/34/14 26/36/13
f 53/63/101 52/62/100 26/36/13 28/38/12
f 54/64/104 76/86/103 74/84/9 30/40/8
f 55/65/105 54/64/104 30/40/8 32/42/7
f 56/66/108 88/98/107 86/96/5 34/44/4
f 47/57/109 56/66/108 34/44/4 14/22/3
f 57/67/45 59/69/82 65/75/110 67/77/46
f 60/70/111 59/69/82 37/47/81 48/58/98
f 58/68/18 60/70/111 48/58/98 18/28/19
f 64/74/96 63/73/95 65/75/110 66/76/112
f 62/72/16 64/74/96 66/76/112 68/78/17
f 61/71/47 63/73/95 39/49/84 21/31/48
f 67/77/46 65/75/110 63/73/95 61/71/47
f 66/76/112 65/75/110 59/69/82 60/70/111
f 68/78/17 66/76/112 60/70/111 58/68/18
f 69/79/52 71/81/88 77/87/113 79/89/53
f 72/82/114 71/81/88 42/52/87 53/63/101
f 70/80/11 72/82/114 53/63/101 28/38/12
f 76/86/103 75/85/102 77/87/113 78/88/115
f 74/84/9 76/86/103 78/88/115 80/90/10
f 73/83/54 75/85/102 43/53/89 29/39/55
f 79/89/53 77/87/113 75/85/102 73/83/54
f 78/88/115 77/87/113 71/81/88 72/82/114
f 80/90/10 78/88/115 72/82/114 70/80/11
f 81/91/57 83/93/91 87/97/106 85/95/58
f 84/94/116 83/93/91 44/54/90 55/65/105
f 82/92/6 84/94/116 55/65/105 32/42/7
f 88/98/107 87/97/106 83/93/91 84/94/116
f 86/96/5 88/98/107 84/94/116 82/92/6
f 85/95/58 87/97/106 45/55/92 33/43/59
s 6
f 89/99/117 109/119/118 108/118/119 107/117/120 106/116/121 105/115/122 104/114/123 103/113/124 102/112/125 101/111/126 100/110/127 99/109/128 98/108/129 97/107/130 96/106/131 95/105/132 94/104/133 93/103/134 92/102/135 91/101/136 90/100/137
s off
f 110/120/138 113/123/139 112/122/140 111/121/141
s 7
f 113/123/142 115/125/143 114/124/144 112/122/145
s off
f 116/126/146 89/129/147 90/128/148 117/127/149
s 8
f 90/100/150 91/101/151 118/131/152 117/130/153
s 9
f 116/132/154 119/133/155 109/119/156 89/99/157
s 6
f 120/134/158 110/120/159 111/121/160 138/152/161 137/151/162 136/150/163 135/149/164 134/148/165 133/147/166 132/146/167 131/145/168 130/144/169 129/143/170 128/142/171 127/141/172 126/140/173 125/139/174 124/138/175 123/137/176 122/136/177 121/135/178
s 7
f 115/125/143 119/154/179 118/153/180 114/124/144
s 8
f 138/152/181 111/121/182 112/156/183 114/155/184
s 9
f 115/157/185 113/158/186 110/120/187 120/134/188
s 6
f 109/119/118 140/160/189 139/159/190 108/118/119
s 8
f 91/101/151 142/162/191 141/161/192 138/152/181 114/155/184 118/131/152
s 9
f 119/133/155 115/157/185 120/134/188 143/163/193 140/160/194 109/119/156
s 7
f 119/154/179 116/126/195 117/127/196 118/153/180
s 6
f 122/136/177 123/137/176 145/165/197 144/164/198
f 121/135/178 122/136/177 144/164/198 146/166/199
f 126/140/173 127/141/172 148/168/200 147/167/201
f 127/141/172 128/142/171 149/169/202 148/168/200
f 128/142/171 129/143/170 150/170/203 149/169/202
f 129/143/170 130/144/169 151/171/204 150/170/203
f 133/147/166 134/148/165 153/173/205 152/172/206
f 134/148/165 135/149/164 154/174/207 153/173/205
f 137/151/162 138/152/161 141/161/208 155/175/209
f 143/163/210 120/134/158 121/135/178 146/166/199
f 147/167/201 158/178/211 157/177/212 156/176/213
f 144/164/198 159/179/214 139/159/190 146/166/199
f 148/168/200 160/180/215 158/178/211 147/167/201
f 149/169/202 161/181/216 160/180/215 148/168/200
f 150/170/203 162/182/217 161/181/216 149/169/202
f 152/172/206 165/185/218 164/184/219 163/183/220
f 153/173/205 166/186/221 165/185/218 152/172/206
f 155/175/209 169/189/222 168/188/223 167/187/224
f 141/161/208 142/162/225 169/189/222 155/175/209
f 140/160/189 143/163/210 146/166/199 139/159/190
f 158/178/211 103/113/124 104/114/123 157/177/212
f 159/179/214 107/117/120 108/118/119 139/159/190
f 160/180/215 102/112/125 103/113/124 158/178/211
f 161/181/216 101/111/126 102/112/125 160/180/215
f 162/182/217 100/110/127 101/111/126 161/181/216
f 165/185/218 96/106/131 97/107/130 164/184/219
f 166/186/221 95/105/132 96/106/131 165/185/218
f 169/189/222 92/102/135 93/103/134 168/188/223
f 142/162/225 91/101/136 92/102/135 169/189/222
f 123/137/176 124/138/175 170/190/226 145/165/197
f 171/191/227 159/179/214 144/164/198 145/165/197
f 106/116/121 107/117/120 159/179/214 171/191/227
f 157/177/212 172/192/228 170/190/226 156/176/213
f 104/114/123 105/115/122 172/192/228 157/177/212
f 125/139/174 126/140/173 147/167/201 156/176/213
f 124/138/175 125/139/174 156/176/213 170/190/226
f 172/192/228 171/191/227 145/165/197 170/190/226
f 105/115/122 106/116/121 171/191/227 172/192/228
f 130/144/169 131/145/168 173/193/229 151/171/204
f 174/194/230 162/182/217 150/170/203 151/171/204
f 99/109/128 100/110/127 162/182/217 174/194/230
f 164/184/219 175/195/231 173/193/229 163/183/220
f 97/107/130 98/108/129 175/195/231 164/184/219
f 132/146/167 133/147/166 152/172/206 163/183/220
f 131/145/168 132/146/167 163/183/220 173/193/229
f 175/195/231 174/194/230 151/171/204 173/193/229
f 98/108/129 99/109/128 174/194/230 175/195/231
f 135/149/164 136/150/163 167/187/224 154/174/207
f 176/196/232 166/186/221 153/173/205 154/174/207
f 94/104/133 95/105/132 166/186/221 176/196/232
f 168/188/223 176/196/232 154/174/207 167/187/224
f 93/103/134 94/104/133 176/196/232 168/188/223
f 136/150/163 137/151/162 155/175/209 167/187/224
